<svg id="Livello_1" data-name="Livello 1" xmlns="http://www.w3.org/2000/svg" viewBox="0 0 318.06 75.81"><defs><style>.cls-1{fill:#6e7c8e;}.cls-2{fill:#454f59;}</style></defs><path class="cls-1" d="M41,69.73,22.15,60a1.4,1.4,0,0,0-1.29,0L2.05,69.73a1.41,1.41,0,0,1-2-1.25V1.4A1.4,1.4,0,0,1,1.4,0H41.61A1.4,1.4,0,0,1,43,1.4V68.48A1.41,1.41,0,0,1,41,69.73Z"/><path class="cls-2" d="M69.36,48.32V8.51H57.46V57.37H85v-9Z"/><path class="cls-2" d="M92.63,55.09l8.63,1.74a1.55,1.55,0,0,0,1.82-1.21l.71-3.5a.33.33,0,0,0-.26-.38l-11-2.22a.32.32,0,0,0-.38.25l-.7,3.49A1.55,1.55,0,0,0,92.63,55.09Zm6-37.79L93,45.35a.6.6,0,0,0,.47.7L104,48.17a.6.6,0,0,0,.71-.47l5.66-28a.6.6,0,0,0-.47-.71L99.38,16.83A.62.62,0,0,0,98.67,17.3Zm11.79-6.76L101.83,8.8A1.54,1.54,0,0,0,100,10l-.72,3.56a.25.25,0,0,0,.2.3l11.16,2.26a.26.26,0,0,0,.3-.21l.72-3.56A1.55,1.55,0,0,0,110.46,10.54Z"/><path class="cls-2" d="M156.09,27.37a16.89,16.89,0,0,0-6.16-7,16.18,16.18,0,0,0-8.7-2.44,15,15,0,0,0-7.17,1.67A12.21,12.21,0,0,0,129.25,24V5.86h-11.9V57.37h11.9V51.94a12.76,12.76,0,0,0,4.81,4.35,15,15,0,0,0,7.17,1.63,16,16,0,0,0,8.7-2.46,17.12,17.12,0,0,0,6.16-7,23.52,23.52,0,0,0,2.26-10.54A23.33,23.33,0,0,0,156.09,27.37ZM143.74,44.94a8.34,8.34,0,0,1-12.08,0,9.73,9.73,0,0,1-2.48-7,9.7,9.7,0,0,1,2.48-7,8,8,0,0,1,6-2.57,8.15,8.15,0,0,1,6.09,2.54,9.6,9.6,0,0,1,2.47,7A9.79,9.79,0,0,1,143.74,44.94Z"/><path class="cls-2" d="M182.51,20.09a16.23,16.23,0,0,0-5.25,5.39V18.53H165.35V57.37h11.91v-18q0-4.8,2.23-6.72c1.47-1.27,3.71-1.91,6.68-1.91h3.27V18.11A12.9,12.9,0,0,0,182.51,20.09Z"/><path class="cls-2" d="M225.54,18.53V24a12.37,12.37,0,0,0-4.77-4.39A15,15,0,0,0,213.56,18a16.13,16.13,0,0,0-8.7,2.44,16.89,16.89,0,0,0-6.16,7,23.33,23.33,0,0,0-2.26,10.51,23.52,23.52,0,0,0,2.26,10.54,17.12,17.12,0,0,0,6.16,7,15.83,15.83,0,0,0,8.63,2.46,15,15,0,0,0,7.21-1.66,13,13,0,0,0,4.84-4.39v5.5h11.9V18.53ZM223.06,45a8.29,8.29,0,0,1-12,0,9.86,9.86,0,0,1-2.47-7.06,9.6,9.6,0,0,1,2.47-7,8.07,8.07,0,0,1,6-2.54,8,8,0,0,1,6,2.57,9.7,9.7,0,0,1,2.48,7A9.73,9.73,0,0,1,223.06,45Z"/><path class="cls-2" d="M261.6,20.09a16.35,16.35,0,0,0-5.26,5.39V18.53h-11.9V57.37h11.9v-18q0-4.8,2.24-6.72c1.47-1.27,3.7-1.91,6.67-1.91h3.27V18.11A12.89,12.89,0,0,0,261.6,20.09Z"/><path class="cls-2" d="M305.18,18.53l-8.91,24.29-9-24.29H274l15.8,37.52-8.9,19.76H293.7l24.36-57.28Z"/></svg>