<svg id="Livello_1" data-name="Livello 1" xmlns="http://www.w3.org/2000/svg" viewBox="0 0 576 440.46"><defs><style>.cls-1{fill:#758aa9;}</style></defs><path class="cls-1" d="M249.6,471.5c10.8,3.8,22.4-4.1,22.4-15.5V78.6a13.66,13.66,0,0,0-5-11C247.4,52,202.4,32,144,32,93.5,32,46.3,45.3,18.1,56.1,6.8,60.5,0,71.7,0,83.8V454.1c0,11.9,12.8,20.2,24.1,16.5C55.6,460.1,105.5,448,144,448,177.9,448,223,462,249.6,471.5Zm76.8,0C353,462,398.1,448,432,448c38.5,0,88.4,12.1,119.9,22.6,11.3,3.8,24.1-4.6,24.1-16.5V83.8c0-12.1-6.8-23.3-18.1-27.6C529.7,45.3,482.5,32,432,32c-58.4,0-103.4,20-123,35.6a14,14,0,0,0-5,11V456c0,11.4,11.7,19.3,22.4,15.5Z" transform="translate(0 -32)"/></svg>